# xmcd
#
# Track frame offsets: 
#        150
#        22970
#        38551
#        59264
#        75913
#        95947
#        122972
#        143141
#        162405
#        180762
#        200273
#        217062
#        236252
#        254090
#        275265
#        297478
#        311752
#
# Disc length: 4387 seconds
#
# Revision: 1
# Processed by: cddbd v1.5.2PL0 Copyright (c) Steve Scherf et al.
# Submitted via: ExactAudioCopyFreeDBPlugin 1.0
#
DISCID=f2112111
DTITLE=Otis Spann - The Hard Way: The August 23, 1960 New York Studio 
DTITLE=Masters [CD1]
DYEAR=2015
DGENRE=Blues
TTITLE0=The Hard Way
TTITLE1=Take A Little Walk With Me
TTITLE2=Otis In The Dark
TTITLE3=Little Boy Blue
TTITLE4=Country Boy
TTITLE5=Beat-Up-Team
TTITLE6=My Daily Wish
TTITLE7=Great Northern Stomp
TTITLE8=I Got Rambling On My Mind #2
TTITLE9=Worried Life Blues
TTITLE10=It Must Have Been The Devil
TTITLE11=Otis Blues
TTITLE12=Going Down Slow
TTITLE13=Half Ain't Been Told
TTITLE14=Monkey Face Woman
TTITLE15=This Is The Blues
TTITLE16=Evil Ways
EXTD=YEAR: 1960
EXTT0=
EXTT1=
EXTT2=
EXTT3=
EXTT4=
EXTT5=
EXTT6=
EXTT7=
EXTT8=
EXTT9=
EXTT10=
EXTT11=
EXTT12=
EXTT13=
EXTT14=
EXTT15=
EXTT16=
PLAYORDER=
